<mxfile host="app.diagrams.net" modified="2021-09-18T20:14:42.158Z" agent="5.0 (Windows NT 10.0; Win64; x64) AppleWebKit/537.36 (KHTML, like Gecko) Chrome/86.0.4240.111 Safari/537.36" etag="4AVZpoEyd8XM4hFIuVMg" version="15.0.4" type="github">
  <diagram name="Page-1" id="e7e014a7-5840-1c2e-5031-d8a46d1fe8dd">
    <mxGraphModel dx="1221" dy="645" grid="1" gridSize="10" guides="1" tooltips="1" connect="1" arrows="1" fold="1" page="1" pageScale="1" pageWidth="1169" pageHeight="826" background="none" math="0" shadow="0">
      <root>
        <mxCell id="0" />
        <mxCell id="1" parent="0" />
        <mxCell id="F_nCC8abUABkadCszCXt-42" value="" style="whiteSpace=wrap;html=1;aspect=fixed;" vertex="1" parent="1">
          <mxGeometry x="270" y="150" width="630" height="630" as="geometry" />
        </mxCell>
        <mxCell id="F_nCC8abUABkadCszCXt-43" value="&lt;span style=&quot;font-size: 40px&quot;&gt;Login admin&lt;/span&gt;" style="text;html=1;strokeColor=none;fillColor=none;align=center;verticalAlign=middle;whiteSpace=wrap;rounded=0;" vertex="1" parent="1">
          <mxGeometry x="470" y="80" width="230" height="50" as="geometry" />
        </mxCell>
        <mxCell id="F_nCC8abUABkadCszCXt-44" value="Administrador" style="shape=umlActor;verticalLabelPosition=bottom;verticalAlign=top;html=1;outlineConnect=0;" vertex="1" parent="1">
          <mxGeometry x="180" y="383" width="30" height="60" as="geometry" />
        </mxCell>
        <mxCell id="F_nCC8abUABkadCszCXt-45" value="" style="ellipse;whiteSpace=wrap;html=1;" vertex="1" parent="1">
          <mxGeometry x="345" y="383" width="90" height="63" as="geometry" />
        </mxCell>
        <mxCell id="F_nCC8abUABkadCszCXt-46" value="Registrar" style="text;html=1;strokeColor=none;fillColor=none;align=center;verticalAlign=middle;whiteSpace=wrap;rounded=0;" vertex="1" parent="1">
          <mxGeometry x="365" y="397" width="50" height="33" as="geometry" />
        </mxCell>
        <mxCell id="F_nCC8abUABkadCszCXt-50" value="" style="ellipse;whiteSpace=wrap;html=1;" vertex="1" parent="1">
          <mxGeometry x="345" y="470" width="90" height="63" as="geometry" />
        </mxCell>
        <mxCell id="F_nCC8abUABkadCszCXt-51" value="Ingresar" style="text;html=1;strokeColor=none;fillColor=none;align=center;verticalAlign=middle;whiteSpace=wrap;rounded=0;" vertex="1" parent="1">
          <mxGeometry x="365" y="484" width="50" height="33" as="geometry" />
        </mxCell>
        <mxCell id="F_nCC8abUABkadCszCXt-53" value="" style="ellipse;whiteSpace=wrap;html=1;" vertex="1" parent="1">
          <mxGeometry x="460" y="310" width="90" height="63" as="geometry" />
        </mxCell>
        <mxCell id="F_nCC8abUABkadCszCXt-54" value="Usuarios" style="text;html=1;strokeColor=none;fillColor=none;align=center;verticalAlign=middle;whiteSpace=wrap;rounded=0;" vertex="1" parent="1">
          <mxGeometry x="480" y="324" width="50" height="33" as="geometry" />
        </mxCell>
        <mxCell id="F_nCC8abUABkadCszCXt-55" value="" style="ellipse;whiteSpace=wrap;html=1;" vertex="1" parent="1">
          <mxGeometry x="460" y="397" width="90" height="63" as="geometry" />
        </mxCell>
        <mxCell id="F_nCC8abUABkadCszCXt-56" value="Productos" style="text;html=1;strokeColor=none;fillColor=none;align=center;verticalAlign=middle;whiteSpace=wrap;rounded=0;" vertex="1" parent="1">
          <mxGeometry x="480" y="411" width="50" height="33" as="geometry" />
        </mxCell>
        <mxCell id="F_nCC8abUABkadCszCXt-57" value="" style="ellipse;whiteSpace=wrap;html=1;" vertex="1" parent="1">
          <mxGeometry x="590" y="250" width="90" height="63" as="geometry" />
        </mxCell>
        <mxCell id="F_nCC8abUABkadCszCXt-58" value="Nom. usuario" style="text;html=1;strokeColor=none;fillColor=none;align=center;verticalAlign=middle;whiteSpace=wrap;rounded=0;" vertex="1" parent="1">
          <mxGeometry x="610" y="264" width="50" height="33" as="geometry" />
        </mxCell>
        <mxCell id="F_nCC8abUABkadCszCXt-59" value="" style="ellipse;whiteSpace=wrap;html=1;" vertex="1" parent="1">
          <mxGeometry x="590" y="334" width="90" height="63" as="geometry" />
        </mxCell>
        <mxCell id="F_nCC8abUABkadCszCXt-60" value="ContraseÃ±a" style="text;html=1;strokeColor=none;fillColor=none;align=center;verticalAlign=middle;whiteSpace=wrap;rounded=0;" vertex="1" parent="1">
          <mxGeometry x="610" y="348" width="50" height="33" as="geometry" />
        </mxCell>
        <mxCell id="F_nCC8abUABkadCszCXt-63" value="" style="endArrow=none;html=1;entryX=0;entryY=0.5;entryDx=0;entryDy=0;" edge="1" parent="1" target="F_nCC8abUABkadCszCXt-45">
          <mxGeometry width="50" height="50" relative="1" as="geometry">
            <mxPoint x="220" y="415" as="sourcePoint" />
            <mxPoint x="230" y="310" as="targetPoint" />
          </mxGeometry>
        </mxCell>
        <mxCell id="F_nCC8abUABkadCszCXt-64" value="" style="endArrow=none;html=1;exitX=0;exitY=0.5;exitDx=0;exitDy=0;" edge="1" parent="1" source="F_nCC8abUABkadCszCXt-50">
          <mxGeometry width="50" height="50" relative="1" as="geometry">
            <mxPoint x="500" y="420" as="sourcePoint" />
            <mxPoint x="220" y="420" as="targetPoint" />
            <Array as="points" />
          </mxGeometry>
        </mxCell>
      </root>
    </mxGraphModel>
  </diagram>
</mxfile>
